<svg version="1.1" id="Layer_2" xmlns="http://www.w3.org/2000/svg" xmlns:xlink="http://www.w3.org/1999/xlink" x="0px" y="0px"
	 width="465px" height="287px" viewBox="0 0 465 287" style="enable-background:new 0 0 465 287;" xml:space="preserve">
<style type="text/css">
<![CDATA[
	.st1{fill-rule:evenodd;clip-rule:evenodd;fill:#000000;}
]]>
</style>
<g>
	<g>
		<path class="st1" d="M42.648,260.008h374.727c6.979,0,12.638-5.672,12.638-12.669V12.669C430.013,5.673,424.354,0,417.375,0
			H42.648c-6.98,0-12.638,5.673-12.638,12.669v234.67C30.011,254.336,35.668,260.008,42.648,260.008z M233.897,5.435
			c2.443,0,4.424,1.985,4.424,4.434c0,2.449-1.98,4.435-4.424,4.435c-2.442,0-4.423-1.985-4.423-4.435
			C229.475,7.42,231.455,5.435,233.897,5.435z M225.493,9.868c1.222,0,2.212,0.993,2.212,2.218s-0.99,2.217-2.212,2.217
			c-1.221,0-2.211-0.992-2.211-2.217S224.272,9.868,225.493,9.868z M50.061,20.004h360.013v220.012H50.061V20.004z M271.569,264.987
			v3.793c0,1.666-1.411,3.017-3.151,3.017h-75.517c-1.74,0-3.151-1.351-3.151-3.017v-3.793C89.37,264.986,0,264.982,0,264.973v8.092
			C0,280.061,5.659,287,12.639,287h439.722c6.98,0,12.639-6.939,12.639-13.936v-8.092C465,264.98,373.435,264.985,271.569,264.987z
			 M271.569,264.973c0,0.005-81.819,0.006-81.819,0v0.015c26.986,0,54.765,0,81.819,0V264.973z"/>
	</g>
</g>
</svg>